<svg width="1024" height="1024"><g transform="translate(35,35)"><g transform="translate(8.620000000000005,916.76)"><line stroke="black" x2="936.76" fill="none"></line><g transform="translate(1.431,1.431)"><g><rect width="54.378" height="54.378" fill="none"></rect><image width="54.378" height="54.378" href="images/radial.png"></image></g><text x="57.24" y="22.896" dominant-baseline="middle" style="fill: black; font-size: 28.62px;">First Example</text><text x="57.24" y="45.792" dominant-baseline="middle" style="fill: black; font-size: 14.31px;">More information can be found at http://github.com/cidrblock/dld4e</text><text x="749.408" y="7.155" dominant-baseline="middle" text-anchor="end" style="fill: black; font-size: 14.31px; font-weight: bold;">Author:</text><text x="752.27" y="7.155" dominant-baseline="middle" style="fill: black; font-size: 14.31px;">Bradley A. Thornton</text><text x="749.408" y="21.465" dominant-baseline="middle" text-anchor="end" style="fill: black; font-size: 14.31px; font-weight: bold;">Company:</text><text x="752.27" y="21.465" dominant-baseline="middle" style="fill: black; font-size: 14.31px;">Self</text><text x="749.408" y="35.775" dominant-baseline="middle" text-anchor="end" style="fill: black; font-size: 14.31px; font-weight: bold;">Date:</text><text x="752.27" y="35.775" dominant-baseline="middle" style="fill: black; font-size: 14.31px;">2019-5-22</text><text x="749.408" y="50.085" dominant-baseline="middle" text-anchor="end" style="fill: black; font-size: 14.31px; font-weight: bold;">Version:</text><text x="752.27" y="50.085" dominant-baseline="middle" style="fill: black; font-size: 14.31px;">1.01</text></g></g><path id="path0" style="stroke: black; fill: none; stroke-dasharray: 0,0; stroke-width: 1;" d="M105.5,768L477.5,768"></path><path id="path1" style="stroke: black; fill: none; stroke-dasharray: 0,0; stroke-width: 1;" d="M105.5,448L477.5,768"></path><path id="path2" style="stroke: black; fill: none; stroke-dasharray: 0,0; stroke-width: 1;" d="M105.5,448L477.5,448"></path><path id="path3" style="stroke: black; fill: none; stroke-dasharray: 0,0; stroke-width: 1;" d="M105.5,128L477.5,768"></path><path id="path4" style="stroke: black; fill: none; stroke-dasharray: 0,0; stroke-width: 1;" d="M477.5,768L849.5,448"></path><path id="path5" style="stroke: black; fill: none; stroke-dasharray: 0,0; stroke-width: 1;" d="M477.5,448L849.5,448"></path><g id="k8s-node-0" transform="translate(31,640)"><rect rx="7.45" ry="12.8" width="149" height="256" fill="#58585B" style="stroke: none; stroke-dasharray: 0,0;"></rect><svg xmlns="http://www.w3.org/2000/svg" viewBox="0 0 246.25 328.75" height="192.6" width="134.1" x="7.45" y="12.8"><g fill="#00188f"><path d="M168.599 327.5c-42.5 0-77.198-34.697-77.198-77.197S126.1 173.1 168.6 173.1c42.5 0 77.202 34.703 77.202 77.203 0 42.597-34.702 77.197-77.202 77.197zm-18.896-40.099C155.2 306.3 163.1 315.8 168.599 315.8c5.502 0 14.199-8.701 18.901-28.399-6.299-.8-12.598-1.601-18.901-1.601-6.299 0-12.598.801-18.896 1.601zm-28.404 7.1c7.1 7.9 15.801 13.399 25.2 16.499-3.901-6.299-6.299-13.398-8.701-22.099-6.197 1.602-11.7 3.198-16.5 5.6zM200.097 289c-2.397 8.701-5.497 15.8-8.696 22.099 9.498-3.198 18.101-9.497 25.2-17.3-4.701-1.7-10.2-3.295-16.504-4.8zm-96.099-33.101c.802 10.2 3.902 18.9 9.504 28.403 6.298-3.203 13.398-5.502 21.298-7.1-1.601-7.098-1.601-14.198-2.397-21.303h-28.404zM202.5 277.9c7.9 1.602 15.801 3.901 21.299 7.1 5.502-9.497 8.701-18.101 9.502-28.399H204.2c.601 7.1-.2 13.502-1.699 21.299zM145 255.898c0 6.303.801 12.602 1.601 18.9 7.1-.8 15-1.6 22.1-1.6 7.1 0 14.199.8 22.1 1.6.8-6.298 1.601-12.597 1.601-18.9H145zm88.999-12.598c-.8-11.001-4.698-21.298-11.001-30.697-6.3 3.197-13.398 5.497-20.498 7.098 1.601 7.1 2.402 15 2.402 23.599H234zm-41.001 0c0-7.1-.795-15-2.398-21.298-7.099.8-14.199 1.596-21.299 1.596-7.099 0-14.204-.795-21.304-1.596-1.596 6.298-2.397 14.198-2.397 21.298h47.397zm-59.898 0c0-7.9.801-15.8 2.397-23.599-7.9-1.6-14.198-3.901-20.497-7.098-6.299 9.496-10.2 19.696-11.801 30.697H133.1zm17.398-32.3c6.303.801 12.602 1.603 18.902 1.603 6.299 0 12.602-.802 18.901-1.603-5.503-18.1-13.398-26-18.901-26-6.3 0-14.2 7.9-18.902 26zm-27.598-7.099c4.698 1.602 10.2 3.902 15.801 4.697 2.398-7.9 4.698-14.2 8.702-19.697-9.503 3.198-17.403 7.9-24.503 15zm68.501-15c3.199 5.498 6.299 12.598 8.696 19.697 5.503-1.596 11.002-3.198 15.802-4.697-7.901-7.1-15.801-11.802-24.498-15z" fill="white" stroke="none"></path><path d="M168.599 174.701c-41.001 0-74.8 33.897-74.8 74.8 0 40.899 33.901 74.8 74.8 74.8 40.904 0 74.8-33.901 74.8-74.8 0-40.903-33.101-74.8-74.8-74.8zm0 142.598c-8.696 0-17.3-12.598-22.1-32.299 7.1-.801 15-1.603 22.1-1.603 7.1 0 15 .802 22.1 1.603-4.8 20.502-13.497 32.299-22.1 32.299zm0-40.898c-7.9 0-15.801.8-23.599 1.601-1.601-7.9-2.402-15-2.402-24.404H195.4c0 9.502-.8 16.504-2.402 24.404-7.9-.903-15.795-1.6-24.4-1.6zm0-93.799c7.9 0 16.499 11.797 22.1 30.698-7.1.801-14.2 1.601-22.1 1.601-7.1 0-15-.8-22.1-1.601 5.504-19.703 14.2-30.698 22.1-30.698zm0 38.598c7.9 0 15.801-.8 23.604-1.601 1.596 7.901 2.397 16.499 3.197 26.001h-52.803c0-9.502 1.602-18.901 3.204-26.001 6.996 1.601 14.898 1.601 22.798 1.601zm-33.101 24.4H100.8c.8-13.399 6.3-26.001 13.398-35.4 7.1 3.197 15 6.298 24.4 7.9-1.596 7.9-2.398 16.499-3.199 26.001l.098 1.5zm0 7.9c0 9.502.8 17.3 2.402 25.2-9.501 1.603-18.1 4.697-25.2 7.901-7.1-10.2-11.001-21.298-11.001-33.9H135.6v.799h-.102zm67.002 0h33.901c-.801 12.598-4.702 23.599-11.001 33.901-7.099-3.202-15.8-6.303-25.2-7.9 1.499-8.701 2.3-15.8 2.3-26.001zm0-7.9c0-9.502-1.601-19.703-3.199-27.598 8.697-1.6 17.3-4.702 24.4-7.9 7.1 10.2 11.797 22.798 12.598 35.4H202.5v-1.6 1.698zm16.499-40.899c-6.299 3.199-13.399 5.5-21.299 7.1-3.197-11.001-7.1-20.502-12.602-26.801 13.403 3.1 25.2 10.2 33.9 19.701zM152.798 184.2C147.3 190.502 143.3 200 140.2 211c-7.9-1.601-15-3.901-21.299-7.099 8.696-8.701 20.499-15.801 33.896-19.702zM117.402 293.7c6.3-3.198 14.2-5.503 22.1-7.099 3.198 12.598 7.9 22.1 12.598 29.096-13.399-3.896-26.001-11.796-34.698-21.997zm67.695 21.997c5.503-7.1 10.2-16.498 13.404-29.096 8.701 1.596 15.8 3.902 22.099 7.1-8.7 10.2-21.299 18.1-35.502 21.996z" fill="white" stroke="none"></path><path d="M78.799 245.6c1.6-44.101 35.4-80.297 78.798-85.899v-143.3C157.597 7.7 150.498.6 141.802.6h-126C7.101.6 0 7.7 0 16.401v307.197h118.1c-11.801-7.9-21.299-18.897-28.397-31.5H23.5v-15.8h59.097c-1.597-4.697-2.398-10.2-3.198-15.796H23.5v-15.8H78.6v.898h.2zM23.7 48.7h110.2v15.801h-110.2V48.7z" fill="white" stroke="none"></path></g></svg><text class="iconLabel" style="font-size: 42px;" id="k8s-node-0-text" transform="translate(74.5,234)rotate(0)" fill="white" text-anchor="middle" dominant-baseline="central">k8s-node-0</text></g><g id="k8s-master" transform="translate(31,320)"><rect rx="7.45" ry="12.8" width="149" height="256" fill="#58585B" style="stroke: none; stroke-dasharray: 0,0;"></rect><svg xmlns="http://www.w3.org/2000/svg" viewBox="0 0 246.25 328.75" height="192.6" width="134.1" x="7.45" y="12.8"><g fill="#00188f"><path d="M168.599 327.5c-42.5 0-77.198-34.697-77.198-77.197S126.1 173.1 168.6 173.1c42.5 0 77.202 34.703 77.202 77.203 0 42.597-34.702 77.197-77.202 77.197zm-18.896-40.099C155.2 306.3 163.1 315.8 168.599 315.8c5.502 0 14.199-8.701 18.901-28.399-6.299-.8-12.598-1.601-18.901-1.601-6.299 0-12.598.801-18.896 1.601zm-28.404 7.1c7.1 7.9 15.801 13.399 25.2 16.499-3.901-6.299-6.299-13.398-8.701-22.099-6.197 1.602-11.7 3.198-16.5 5.6zM200.097 289c-2.397 8.701-5.497 15.8-8.696 22.099 9.498-3.198 18.101-9.497 25.2-17.3-4.701-1.7-10.2-3.295-16.504-4.8zm-96.099-33.101c.802 10.2 3.902 18.9 9.504 28.403 6.298-3.203 13.398-5.502 21.298-7.1-1.601-7.098-1.601-14.198-2.397-21.303h-28.404zM202.5 277.9c7.9 1.602 15.801 3.901 21.299 7.1 5.502-9.497 8.701-18.101 9.502-28.399H204.2c.601 7.1-.2 13.502-1.699 21.299zM145 255.898c0 6.303.801 12.602 1.601 18.9 7.1-.8 15-1.6 22.1-1.6 7.1 0 14.199.8 22.1 1.6.8-6.298 1.601-12.597 1.601-18.9H145zm88.999-12.598c-.8-11.001-4.698-21.298-11.001-30.697-6.3 3.197-13.398 5.497-20.498 7.098 1.601 7.1 2.402 15 2.402 23.599H234zm-41.001 0c0-7.1-.795-15-2.398-21.298-7.099.8-14.199 1.596-21.299 1.596-7.099 0-14.204-.795-21.304-1.596-1.596 6.298-2.397 14.198-2.397 21.298h47.397zm-59.898 0c0-7.9.801-15.8 2.397-23.599-7.9-1.6-14.198-3.901-20.497-7.098-6.299 9.496-10.2 19.696-11.801 30.697H133.1zm17.398-32.3c6.303.801 12.602 1.603 18.902 1.603 6.299 0 12.602-.802 18.901-1.603-5.503-18.1-13.398-26-18.901-26-6.3 0-14.2 7.9-18.902 26zm-27.598-7.099c4.698 1.602 10.2 3.902 15.801 4.697 2.398-7.9 4.698-14.2 8.702-19.697-9.503 3.198-17.403 7.9-24.503 15zm68.501-15c3.199 5.498 6.299 12.598 8.696 19.697 5.503-1.596 11.002-3.198 15.802-4.697-7.901-7.1-15.801-11.802-24.498-15z" fill="white" stroke="none"></path><path d="M168.599 174.701c-41.001 0-74.8 33.897-74.8 74.8 0 40.899 33.901 74.8 74.8 74.8 40.904 0 74.8-33.901 74.8-74.8 0-40.903-33.101-74.8-74.8-74.8zm0 142.598c-8.696 0-17.3-12.598-22.1-32.299 7.1-.801 15-1.603 22.1-1.603 7.1 0 15 .802 22.1 1.603-4.8 20.502-13.497 32.299-22.1 32.299zm0-40.898c-7.9 0-15.801.8-23.599 1.601-1.601-7.9-2.402-15-2.402-24.404H195.4c0 9.502-.8 16.504-2.402 24.404-7.9-.903-15.795-1.6-24.4-1.6zm0-93.799c7.9 0 16.499 11.797 22.1 30.698-7.1.801-14.2 1.601-22.1 1.601-7.1 0-15-.8-22.1-1.601 5.504-19.703 14.2-30.698 22.1-30.698zm0 38.598c7.9 0 15.801-.8 23.604-1.601 1.596 7.901 2.397 16.499 3.197 26.001h-52.803c0-9.502 1.602-18.901 3.204-26.001 6.996 1.601 14.898 1.601 22.798 1.601zm-33.101 24.4H100.8c.8-13.399 6.3-26.001 13.398-35.4 7.1 3.197 15 6.298 24.4 7.9-1.596 7.9-2.398 16.499-3.199 26.001l.098 1.5zm0 7.9c0 9.502.8 17.3 2.402 25.2-9.501 1.603-18.1 4.697-25.2 7.901-7.1-10.2-11.001-21.298-11.001-33.9H135.6v.799h-.102zm67.002 0h33.901c-.801 12.598-4.702 23.599-11.001 33.901-7.099-3.202-15.8-6.303-25.2-7.9 1.499-8.701 2.3-15.8 2.3-26.001zm0-7.9c0-9.502-1.601-19.703-3.199-27.598 8.697-1.6 17.3-4.702 24.4-7.9 7.1 10.2 11.797 22.798 12.598 35.4H202.5v-1.6 1.698zm16.499-40.899c-6.299 3.199-13.399 5.5-21.299 7.1-3.197-11.001-7.1-20.502-12.602-26.801 13.403 3.1 25.2 10.2 33.9 19.701zM152.798 184.2C147.3 190.502 143.3 200 140.2 211c-7.9-1.601-15-3.901-21.299-7.099 8.696-8.701 20.499-15.801 33.896-19.702zM117.402 293.7c6.3-3.198 14.2-5.503 22.1-7.099 3.198 12.598 7.9 22.1 12.598 29.096-13.399-3.896-26.001-11.796-34.698-21.997zm67.695 21.997c5.503-7.1 10.2-16.498 13.404-29.096 8.701 1.596 15.8 3.902 22.099 7.1-8.7 10.2-21.299 18.1-35.502 21.996z" fill="white" stroke="none"></path><path d="M78.799 245.6c1.6-44.101 35.4-80.297 78.798-85.899v-143.3C157.597 7.7 150.498.6 141.802.6h-126C7.101.6 0 7.7 0 16.401v307.197h118.1c-11.801-7.9-21.299-18.897-28.397-31.5H23.5v-15.8h59.097c-1.597-4.697-2.398-10.2-3.198-15.796H23.5v-15.8H78.6v.898h.2zM23.7 48.7h110.2v15.801h-110.2V48.7z" fill="white" stroke="none"></path></g></svg><text class="iconLabel" style="font-size: 42px;" id="k8s-master-text" transform="translate(74.5,234)rotate(0)" fill="white" text-anchor="middle" dominant-baseline="central">k8s-master</text></g><g id="k8s-node-1" transform="translate(31,0)"><rect rx="7.45" ry="12.8" width="149" height="256" fill="#58585B" style="stroke: none; stroke-dasharray: 0,0;"></rect><svg xmlns="http://www.w3.org/2000/svg" viewBox="0 0 246.25 328.75" height="192.6" width="134.1" x="7.45" y="12.8"><g fill="#00188f"><path d="M168.599 327.5c-42.5 0-77.198-34.697-77.198-77.197S126.1 173.1 168.6 173.1c42.5 0 77.202 34.703 77.202 77.203 0 42.597-34.702 77.197-77.202 77.197zm-18.896-40.099C155.2 306.3 163.1 315.8 168.599 315.8c5.502 0 14.199-8.701 18.901-28.399-6.299-.8-12.598-1.601-18.901-1.601-6.299 0-12.598.801-18.896 1.601zm-28.404 7.1c7.1 7.9 15.801 13.399 25.2 16.499-3.901-6.299-6.299-13.398-8.701-22.099-6.197 1.602-11.7 3.198-16.5 5.6zM200.097 289c-2.397 8.701-5.497 15.8-8.696 22.099 9.498-3.198 18.101-9.497 25.2-17.3-4.701-1.7-10.2-3.295-16.504-4.8zm-96.099-33.101c.802 10.2 3.902 18.9 9.504 28.403 6.298-3.203 13.398-5.502 21.298-7.1-1.601-7.098-1.601-14.198-2.397-21.303h-28.404zM202.5 277.9c7.9 1.602 15.801 3.901 21.299 7.1 5.502-9.497 8.701-18.101 9.502-28.399H204.2c.601 7.1-.2 13.502-1.699 21.299zM145 255.898c0 6.303.801 12.602 1.601 18.9 7.1-.8 15-1.6 22.1-1.6 7.1 0 14.199.8 22.1 1.6.8-6.298 1.601-12.597 1.601-18.9H145zm88.999-12.598c-.8-11.001-4.698-21.298-11.001-30.697-6.3 3.197-13.398 5.497-20.498 7.098 1.601 7.1 2.402 15 2.402 23.599H234zm-41.001 0c0-7.1-.795-15-2.398-21.298-7.099.8-14.199 1.596-21.299 1.596-7.099 0-14.204-.795-21.304-1.596-1.596 6.298-2.397 14.198-2.397 21.298h47.397zm-59.898 0c0-7.9.801-15.8 2.397-23.599-7.9-1.6-14.198-3.901-20.497-7.098-6.299 9.496-10.2 19.696-11.801 30.697H133.1zm17.398-32.3c6.303.801 12.602 1.603 18.902 1.603 6.299 0 12.602-.802 18.901-1.603-5.503-18.1-13.398-26-18.901-26-6.3 0-14.2 7.9-18.902 26zm-27.598-7.099c4.698 1.602 10.2 3.902 15.801 4.697 2.398-7.9 4.698-14.2 8.702-19.697-9.503 3.198-17.403 7.9-24.503 15zm68.501-15c3.199 5.498 6.299 12.598 8.696 19.697 5.503-1.596 11.002-3.198 15.802-4.697-7.901-7.1-15.801-11.802-24.498-15z" fill="white" stroke="none"></path><path d="M168.599 174.701c-41.001 0-74.8 33.897-74.8 74.8 0 40.899 33.901 74.8 74.8 74.8 40.904 0 74.8-33.901 74.8-74.8 0-40.903-33.101-74.8-74.8-74.8zm0 142.598c-8.696 0-17.3-12.598-22.1-32.299 7.1-.801 15-1.603 22.1-1.603 7.1 0 15 .802 22.1 1.603-4.8 20.502-13.497 32.299-22.1 32.299zm0-40.898c-7.9 0-15.801.8-23.599 1.601-1.601-7.9-2.402-15-2.402-24.404H195.4c0 9.502-.8 16.504-2.402 24.404-7.9-.903-15.795-1.6-24.4-1.6zm0-93.799c7.9 0 16.499 11.797 22.1 30.698-7.1.801-14.2 1.601-22.1 1.601-7.1 0-15-.8-22.1-1.601 5.504-19.703 14.2-30.698 22.1-30.698zm0 38.598c7.9 0 15.801-.8 23.604-1.601 1.596 7.901 2.397 16.499 3.197 26.001h-52.803c0-9.502 1.602-18.901 3.204-26.001 6.996 1.601 14.898 1.601 22.798 1.601zm-33.101 24.4H100.8c.8-13.399 6.3-26.001 13.398-35.4 7.1 3.197 15 6.298 24.4 7.9-1.596 7.9-2.398 16.499-3.199 26.001l.098 1.5zm0 7.9c0 9.502.8 17.3 2.402 25.2-9.501 1.603-18.1 4.697-25.2 7.901-7.1-10.2-11.001-21.298-11.001-33.9H135.6v.799h-.102zm67.002 0h33.901c-.801 12.598-4.702 23.599-11.001 33.901-7.099-3.202-15.8-6.303-25.2-7.9 1.499-8.701 2.3-15.8 2.3-26.001zm0-7.9c0-9.502-1.601-19.703-3.199-27.598 8.697-1.6 17.3-4.702 24.4-7.9 7.1 10.2 11.797 22.798 12.598 35.4H202.5v-1.6 1.698zm16.499-40.899c-6.299 3.199-13.399 5.5-21.299 7.1-3.197-11.001-7.1-20.502-12.602-26.801 13.403 3.1 25.2 10.2 33.9 19.701zM152.798 184.2C147.3 190.502 143.3 200 140.2 211c-7.9-1.601-15-3.901-21.299-7.099 8.696-8.701 20.499-15.801 33.896-19.702zM117.402 293.7c6.3-3.198 14.2-5.503 22.1-7.099 3.198 12.598 7.9 22.1 12.598 29.096-13.399-3.896-26.001-11.796-34.698-21.997zm67.695 21.997c5.503-7.1 10.2-16.498 13.404-29.096 8.701 1.596 15.8 3.902 22.099 7.1-8.7 10.2-21.299 18.1-35.502 21.996z" fill="white" stroke="none"></path><path d="M78.799 245.6c1.6-44.101 35.4-80.297 78.798-85.899v-143.3C157.597 7.7 150.498.6 141.802.6h-126C7.101.6 0 7.7 0 16.401v307.197h118.1c-11.801-7.9-21.299-18.897-28.397-31.5H23.5v-15.8h59.097c-1.597-4.697-2.398-10.2-3.198-15.796H23.5v-15.8H78.6v.898h.2zM23.7 48.7h110.2v15.801h-110.2V48.7z" fill="white" stroke="none"></path></g></svg><text class="iconLabel" style="font-size: 42px;" id="k8s-node-1-text" transform="translate(74.5,234)rotate(0)" fill="white" text-anchor="middle" dominant-baseline="central">k8s-node-1</text></g><g id="cluster-network-NE" transform="translate(403,640)"><rect rx="7.45" ry="12.8" width="149" height="256" fill="white" style="stroke: #004BAF; stroke-dasharray: 0,0;"></rect><svg xmlns="http://www.w3.org/2000/svg" viewBox="0 0 46.25 31.25" height="192.6" width="134.1" x="7.45" y="12.8"><path d="M46.23 9.19c0 4.937-10.293 8.94-22.987 8.94-12.7 0-22.994-4.003-22.994-8.94v13.095c0 4.936 10.293 8.94 22.994 8.94 12.695 0 22.987-4.004 22.987-8.94V9.19" fill="#004BAF"></path><path d="M46.23 9.19c0 4.937-10.293 8.94-22.987 8.94-12.7 0-22.994-4.003-22.994-8.94v13.095c0 4.936 10.293 8.94 22.994 8.94 12.695 0 22.987-4.004 22.987-8.94V9.19z" fill="none" stroke="#fff" stroke-width="0.25"></path><path d="M23.243 18.13c12.695 0 22.987-4.004 22.987-8.94 0-4.943-10.292-8.942-22.987-8.942-12.7 0-22.994 4-22.994 8.942 0 4.936 10.293 8.94 22.994 8.94" fill="#004BAF"></path><path d="M23.243 18.13c12.695 0 22.987-4.004 22.987-8.94 0-4.943-10.292-8.942-22.987-8.942-12.7 0-22.994 4-22.994 8.942 0 4.936 10.293 8.94 22.994 8.94z" fill="none" stroke="#fff" stroke-width="0.25"></path><path d="M17.994 5.694l1.894 2.846-7.178 1.66 1.567-1.309L3.19 6.997l2.777-2.084 10.709 1.81 1.319-1.03M28.091 12.598l-1.294-2.935 6.474-1.294-1.122 1.006 10.791 1.841-2.589 2.075-10.728-2.016-1.532 1.323M24.551 4.14l7.25-1.986.09 3.11-1.817-.346-3.536 2.933-3.38-.492 3.653-2.872-2.26-.347M21.445 15.274l-6.909 1.298-.259-3.193 1.988.43 3.799-3.248 3.364.567-4.058 3.54 2.075.606" fill="#fff"></path></svg><text class="iconLabel" style="font-size: 42px;" id="cluster-network-NE-text" transform="translate(74.5,234)rotate(0)" fill="#004BAF" text-anchor="middle" dominant-baseline="central">cluster-network-NE</text></g><g id="public1-router" transform="translate(775,320)"><rect rx="7.45" ry="12.8" width="149" height="256" fill="white" style="stroke: #004BAF; stroke-dasharray: 0,0;"></rect><svg xmlns="http://www.w3.org/2000/svg" viewBox="0 0 46.25 31.25" height="192.6" width="134.1" x="7.45" y="12.8"><path d="M46.23 9.19c0 4.937-10.293 8.94-22.987 8.94-12.7 0-22.994-4.003-22.994-8.94v13.095c0 4.936 10.293 8.94 22.994 8.94 12.695 0 22.987-4.004 22.987-8.94V9.19" fill="#004BAF"></path><path d="M46.23 9.19c0 4.937-10.293 8.94-22.987 8.94-12.7 0-22.994-4.003-22.994-8.94v13.095c0 4.936 10.293 8.94 22.994 8.94 12.695 0 22.987-4.004 22.987-8.94V9.19z" fill="none" stroke="#fff" stroke-width="0.25"></path><path d="M23.243 18.13c12.695 0 22.987-4.004 22.987-8.94 0-4.943-10.292-8.942-22.987-8.942-12.7 0-22.994 4-22.994 8.942 0 4.936 10.293 8.94 22.994 8.94" fill="#004BAF"></path><path d="M23.243 18.13c12.695 0 22.987-4.004 22.987-8.94 0-4.943-10.292-8.942-22.987-8.942-12.7 0-22.994 4-22.994 8.942 0 4.936 10.293 8.94 22.994 8.94z" fill="none" stroke="#fff" stroke-width="0.25"></path><path d="M17.994 5.694l1.894 2.846-7.178 1.66 1.567-1.309L3.19 6.997l2.777-2.084 10.709 1.81 1.319-1.03M28.091 12.598l-1.294-2.935 6.474-1.294-1.122 1.006 10.791 1.841-2.589 2.075-10.728-2.016-1.532 1.323M24.551 4.14l7.25-1.986.09 3.11-1.817-.346-3.536 2.933-3.38-.492 3.653-2.872-2.26-.347M21.445 15.274l-6.909 1.298-.259-3.193 1.988.43 3.799-3.248 3.364.567-4.058 3.54 2.075.606" fill="#fff"></path></svg><text class="iconLabel" style="font-size: 42px;" id="public1-router-text" transform="translate(74.5,234)rotate(0)" fill="#004BAF" text-anchor="middle" dominant-baseline="central">public1-router</text></g><g id="cluster2-network-NE" transform="translate(403,320)"><rect rx="7.45" ry="12.8" width="149" height="256" fill="white" style="stroke: #004BAF; stroke-dasharray: 0,0;"></rect><svg xmlns="http://www.w3.org/2000/svg" viewBox="0 0 46.25 31.25" height="192.6" width="134.1" x="7.45" y="12.8"><path d="M46.23 9.19c0 4.937-10.293 8.94-22.987 8.94-12.7 0-22.994-4.003-22.994-8.94v13.095c0 4.936 10.293 8.94 22.994 8.94 12.695 0 22.987-4.004 22.987-8.94V9.19" fill="#004BAF"></path><path d="M46.23 9.19c0 4.937-10.293 8.94-22.987 8.94-12.7 0-22.994-4.003-22.994-8.94v13.095c0 4.936 10.293 8.94 22.994 8.94 12.695 0 22.987-4.004 22.987-8.94V9.19z" fill="none" stroke="#fff" stroke-width="0.25"></path><path d="M23.243 18.13c12.695 0 22.987-4.004 22.987-8.94 0-4.943-10.292-8.942-22.987-8.942-12.7 0-22.994 4-22.994 8.942 0 4.936 10.293 8.94 22.994 8.94" fill="#004BAF"></path><path d="M23.243 18.13c12.695 0 22.987-4.004 22.987-8.94 0-4.943-10.292-8.942-22.987-8.942-12.7 0-22.994 4-22.994 8.942 0 4.936 10.293 8.94 22.994 8.94z" fill="none" stroke="#fff" stroke-width="0.25"></path><path d="M17.994 5.694l1.894 2.846-7.178 1.66 1.567-1.309L3.19 6.997l2.777-2.084 10.709 1.81 1.319-1.03M28.091 12.598l-1.294-2.935 6.474-1.294-1.122 1.006 10.791 1.841-2.589 2.075-10.728-2.016-1.532 1.323M24.551 4.14l7.25-1.986.09 3.11-1.817-.346-3.536 2.933-3.38-.492 3.653-2.872-2.26-.347M21.445 15.274l-6.909 1.298-.259-3.193 1.988.43 3.799-3.248 3.364.567-4.058 3.54 2.075.606" fill="#fff"></path></svg><text class="iconLabel" style="font-size: 42px;" id="cluster2-network-NE-text" transform="translate(74.5,234)rotate(0)" fill="#004BAF" text-anchor="middle" dominant-baseline="central">cluster2-network-NE</text></g><text class="connectionLabel" style="fill: black; font-size: 18.625px;" dy="-1" dx="77.5"><textPath style="text-anchor: start;" xlink:href="#path0">192.168.187.28</textPath></text><text class="connectionLabel" style="fill: black; font-size: 18.625px;" dy="18.625" dx="-77.5"><textPath style="text-anchor: end;" startOffset="100%" xlink:href="#path0"></textPath></text><text class="connectionLabel" style="fill: black; font-size: 18.625px;" dy="-1" dx="133.44201943596474"><textPath style="text-anchor: start;" xlink:href="#path1">192.168.187.4</textPath></text><text class="connectionLabel" style="fill: black; font-size: 18.625px;" dy="18.625" dx="-133.44201943596474"><textPath style="text-anchor: end;" startOffset="100%" xlink:href="#path1"></textPath></text><text class="connectionLabel" style="fill: black; font-size: 18.625px;" dy="-1" dx="77.5"><textPath style="text-anchor: start;" xlink:href="#path2">192.168.166.3</textPath></text><text class="connectionLabel" style="fill: black; font-size: 18.625px;" dy="18.625" dx="-77.5"><textPath style="text-anchor: end;" startOffset="100%" xlink:href="#path2"></textPath></text><text class="connectionLabel" style="fill: black; font-size: 18.625px;" dy="-1" dx="159.22688279788946"><textPath style="text-anchor: start;" xlink:href="#path3">192.168.187.20</textPath></text><text class="connectionLabel" style="fill: black; font-size: 18.625px;" dy="18.625" dx="-159.22688279788946"><textPath style="text-anchor: end;" startOffset="100%" xlink:href="#path3"></textPath></text><text class="connectionLabel" style="fill: black; font-size: 18.625px;" dy="-1" dx="141.61701943596475"><textPath style="text-anchor: start;" xlink:href="#path4"></textPath></text><text class="connectionLabel" style="fill: black; font-size: 18.625px;" dy="18.625" dx="-141.61701943596475"><textPath style="text-anchor: end;" startOffset="100%" xlink:href="#path4"></textPath></text><text class="connectionLabel" style="fill: black; font-size: 18.625px;" dy="-1" dx="77.5"><textPath style="text-anchor: start;" xlink:href="#path5"></textPath></text><text class="connectionLabel" style="fill: black; font-size: 18.625px;" dy="18.625" dx="-77.5"><textPath style="text-anchor: end;" startOffset="100%" xlink:href="#path5"></textPath></text></g></svg>